<?xml version="1.0" standalone="no"?>
<!DOCTYPE svg PUBLIC "-//W3C//DTD SVG 20010904//EN"
 "http://www.w3.org/TR/2001/REC-SVG-20010904/DTD/svg10.dtd">
<svg version="1.0" xmlns="http://www.w3.org/2000/svg"
 width="318.000000pt" height="286.000000pt" viewBox="0 0 318.000000 286.000000"
 preserveAspectRatio="xMidYMid meet">

<g transform="translate(0.000000,286.000000) scale(0.100000,-0.100000)"
fill="#000000" stroke="none">
<path d="M1179 2328 c-1 -2 -2 -39 -3 -84 -3 -88 -26 -152 -69 -192 -13 -12
-70 -47 -127 -78 -201 -107 -327 -242 -403 -431 -80 -198 -83 -445 -9 -668
l27 -80 205 4 c113 2 223 6 244 10 l40 6 -50 32 c-113 73 -215 206 -255 333
-31 99 -29 241 5 343 42 124 105 214 199 284 33 23 63 43 68 43 5 0 9 -32 9
-70 0 -68 1 -70 20 -60 17 9 20 21 20 84 l0 74 38 15 c55 22 146 37 224 37
l69 0 -2 -99 c-1 -77 2 -104 15 -122 15 -22 16 -17 16 100 l0 123 43 -7 c23
-4 91 -18 150 -31 205 -47 342 -42 481 16 80 34 176 106 176 133 0 23 -6 22
-50 -13 -21 -17 -69 -45 -107 -63 -66 -31 -72 -32 -198 -32 -127 0 -134 1
-320 54 -158 45 -209 55 -300 60 l-110 6 0 105 c0 82 -4 112 -18 138 -15 28
-25 38 -28 30z"/>
<path d="M577 2042 c-28 -31 -51 -74 -61 -115 -10 -41 26 -109 77 -147 41 -30
42 -30 45 -10 5 28 -4 36 -22 21 -11 -9 -16 -9 -22 0 -4 7 -2 15 4 17 7 2 9 9
6 14 -4 7 -2 8 5 4 6 -4 8 -12 5 -18 -4 -6 -2 -8 4 -4 6 4 8 26 5 56 -3 28 -3
50 0 50 3 0 13 -24 23 -52 26 -83 32 -90 55 -77 12 6 18 17 15 25 -3 7 0 13 6
11 19 -4 33 49 22 81 -6 15 -16 26 -22 25 -6 -2 -9 4 -6 12 6 15 -56 96 -92
120 -19 12 -24 11 -47 -13z m13 -26 c0 -2 -7 -7 -16 -10 -8 -3 -12 -2 -9 4 6
10 25 14 25 6z m79 -42 c-6 -8 -17 -14 -23 -14 -6 0 -5 4 3 9 7 5 11 14 7 20
-5 7 -1 9 9 5 12 -5 13 -9 4 -20z m-128 -27 c-10 -9 -11 -8 -5 6 3 10 9 15 12
12 3 -3 0 -11 -7 -18z m-3 -72 c-3 -3 -9 2 -12 12 -6 14 -5 15 5 6 7 -7 10
-15 7 -18z m136 -35 c-6 -5 -24 21 -24 34 0 6 6 1 14 -10 8 -10 12 -21 10 -24z
m29 -33 c3 -8 -1 -14 -8 -14 -7 0 -11 6 -8 14 3 7 6 13 8 13 2 0 5 -6 8 -13z"/>
<path d="M330 1804 c-37 -16 -112 -95 -105 -112 3 -7 0 -10 -5 -7 -5 3 -15 -6
-22 -20 -10 -22 -9 -29 10 -47 12 -13 34 -21 52 -21 17 0 26 -3 20 -7 -22 -13
116 -60 178 -60 45 0 80 18 61 32 -10 7 -8 8 7 4 21 -6 51 18 73 61 17 34 13
48 -7 23 -14 -18 -19 -19 -19 -7 0 9 4 14 9 11 4 -3 8 0 8 6 0 6 -6 10 -12 9
-47 -6 -178 2 -173 11 3 6 21 11 38 11 l32 2 -35 6 c-23 5 -4 7 52 7 132 -1
141 32 24 89 -56 28 -133 31 -186 9z m117 0 c-3 -3 -12 -4 -19 -1 -8 3 -5 6 6
6 11 1 17 -2 13 -5z m-40 -10 c-3 -3 -12 -4 -19 -1 -8 3 -5 6 6 6 11 1 17 -2
13 -5z m131 -19 c2 -1 -4 -5 -13 -9 -11 -4 -14 -2 -9 6 5 7 2 9 -8 6 -8 -4
-15 0 -15 7 0 11 5 11 21 3 12 -6 22 -12 24 -13z m50 -51 c-4 -3 -12 5 -18 18
-12 22 -12 22 6 6 10 -10 15 -20 12 -24z m-310 12 c-7 -8 -15 -12 -17 -11 -5
6 10 25 20 25 5 0 4 -6 -3 -14z m249 8 c-3 -3 -12 -4 -19 -1 -8 3 -5 6 6 6 11
1 17 -2 13 -5z m-226 -57 c-10 -9 -11 -8 -5 6 3 10 9 15 12 12 3 -3 0 -11 -7
-18z m-80 -54 c13 -16 12 -17 -3 -4 -10 7 -18 15 -18 17 0 8 8 3 21 -13z"/>
<path d="M1812 1740 c-49 -7 -122 -70 -122 -105 1 -47 26 -106 53 -120 49 -25
50 -27 19 -45 -16 -10 -43 -35 -58 -56 -16 -20 -47 -57 -69 -81 -34 -39 -43
-44 -68 -39 -23 5 -28 3 -24 -9 4 -8 -5 -22 -21 -34 -15 -11 -22 -21 -15 -21
7 0 10 -7 7 -15 -10 -24 40 -18 73 9 37 30 174 108 181 102 2 -3 0 -45 -5 -93
-12 -101 -9 -219 5 -236 5 -7 13 -35 17 -62 5 -44 3 -53 -14 -69 -37 -34 -27
-46 39 -46 62 0 76 12 47 42 -8 7 -12 19 -9 26 2 7 12 56 21 110 l18 97 8 -50
c4 -27 13 -77 20 -110 12 -51 11 -62 -1 -76 -27 -30 -16 -39 46 -39 52 0 60 2
60 19 0 10 -9 25 -20 32 -18 13 -19 20 -11 68 4 29 13 56 19 60 13 8 -1 267
-17 321 -18 56 -14 68 29 90 25 13 40 27 40 39 0 10 9 26 20 36 10 9 24 34 31
54 6 20 25 57 41 83 20 32 27 54 23 68 -7 22 -25 28 -25 8 0 -9 -3 -8 -10 2
-7 11 -11 9 -20 -14 -7 -20 -15 -26 -26 -22 -14 5 -15 1 -10 -28 6 -30 2 -39
-29 -70 -34 -34 -108 -66 -122 -52 -4 3 3 20 15 36 24 31 28 55 12 65 -5 3
-10 22 -10 41 0 25 -8 42 -25 58 -30 28 -55 34 -113 26z"/>
<path d="M1359 1719 c-8 -5 -37 -6 -65 -2 -37 4 -65 1 -98 -12 -38 -15 -50
-16 -76 -5 -38 16 -53 5 -76 -56 -15 -40 -20 -45 -41 -39 -30 7 -30 -9 2 -40
30 -30 68 -32 94 -4 l19 21 8 -24 c4 -12 8 -30 8 -39 1 -9 16 -29 35 -45 l34
-29 -24 -5 c-21 -5 -18 -8 24 -23 45 -15 50 -15 104 4 72 24 71 25 75 -12 l3
-30 65 45 c36 25 80 53 97 63 57 29 52 86 -4 60 -18 -8 -26 -8 -32 1 -5 9 -11
5 -18 -11 -7 -15 -26 -28 -54 -36 -24 -7 -61 -22 -82 -33 -22 -11 -40 -18 -42
-16 -2 2 10 22 26 46 16 24 29 56 29 73 l0 30 30 -23 c24 -18 35 -20 57 -12
15 5 33 21 40 34 11 23 11 25 -10 28 -16 2 -29 16 -42 45 -21 43 -59 63 -86
46z"/>
<path d="M1427 1544 c-3 -3 -3 -12 0 -19 6 -17 33 -8 33 11 0 14 -21 19 -33 8z"/>
<path d="M1060 1470 c0 -58 1 -60 20 -48 15 10 20 24 20 60 0 41 -3 48 -20 48
-18 0 -20 -7 -20 -60z"/>
<path d="M1083 1410 c-32 -19 -41 -43 -25 -66 12 -18 116 -72 130 -67 18 7 15
27 -8 48 -11 10 -17 22 -14 26 3 5 -4 9 -15 9 -17 0 -21 6 -21 35 0 41 -4 42
-47 15z"/>
<path d="M1443 1402 c-9 -6 -13 -44 -14 -126 -1 -133 -3 -144 -33 -156 -21 -9
-21 -9 2 -9 12 -1 25 -8 28 -16 4 -8 12 -15 20 -15 8 0 14 7 14 15 0 8 9 15
20 15 11 0 20 7 20 15 0 8 -9 15 -20 15 -18 0 -20 8 -22 135 -2 104 -6 133
-15 127z"/>
<path d="M1060 1230 c0 -83 -1 -90 -20 -90 -11 0 -20 -7 -20 -15 0 -8 9 -15
20 -15 11 0 20 -7 20 -15 0 -8 9 -15 20 -15 11 0 20 7 20 15 0 8 8 15 17 15
15 0 15 2 -2 14 -16 11 -18 26 -17 95 1 70 -2 82 -19 91 -18 10 -19 7 -19 -80z"/>
<path d="M1308 1219 c-53 -17 -61 -17 -103 -2 -57 19 -70 14 -85 -33 -12 -34
-11 -38 11 -55 13 -10 30 -19 37 -19 11 0 13 -13 9 -52 -2 -29 -8 -63 -12 -75
-6 -18 -2 -25 20 -35 39 -18 61 -1 57 46 -2 21 2 60 8 88 11 43 14 48 23 32 6
-10 11 -50 11 -87 1 -73 19 -103 54 -90 26 10 30 23 20 60 -5 18 -8 53 -6 76
2 33 8 44 26 52 17 7 21 15 17 30 -4 11 -9 32 -12 48 -3 15 -8 29 -12 31 -3 1
-32 -5 -63 -15z"/>
<path d="M1701 636 c-8 -9 -11 -74 -9 -212 l3 -199 30 0 c29 0 30 1 32 55 5
89 12 122 29 118 8 -2 36 -41 62 -87 42 -76 51 -85 79 -88 17 -2 34 0 37 5 3
5 -24 61 -59 125 -36 64 -65 119 -65 123 0 3 9 17 20 31 11 14 17 29 14 34 -3
5 -1 9 4 9 12 0 62 72 62 88 0 7 -13 12 -28 12 -31 0 -78 -52 -66 -72 4 -6 3
-8 -3 -5 -14 8 -69 -63 -65 -83 2 -12 1 -12 -6 -2 -5 7 -10 43 -11 79 -1 37
-4 70 -7 75 -8 13 -40 9 -53 -6z m119 -110 c0 -3 -4 -8 -10 -11 -5 -3 -10 -1
-10 4 0 6 5 11 10 11 6 0 10 -2 10 -4z"/>
<path d="M2182 638 c-17 -17 -17 -389 0 -406 16 -16 121 -15 161 2 75 31 116
130 102 250 -8 75 -25 109 -72 141 -32 21 -49 25 -108 25 -42 0 -76 -5 -83
-12z m157 -123 c20 -41 25 -107 12 -148 -14 -41 -63 -69 -84 -48 -16 16 -22
178 -8 213 9 23 14 26 38 19 17 -4 34 -19 42 -36z"/>
<path d="M2580 632 c-45 -25 -70 -60 -77 -108 -6 -50 23 -88 103 -134 48 -27
55 -34 52 -58 -2 -22 -9 -28 -33 -30 -16 -2 -45 4 -62 14 -27 14 -35 15 -48 4
-34 -29 -2 -77 66 -99 70 -23 146 30 156 107 7 55 -11 89 -63 120 -80 47 -101
68 -88 89 9 14 24 18 70 18 56 0 59 1 61 25 6 51 -79 83 -137 52z"/>
</g>
</svg>
